<?xml version="1.0" encoding="iso-8859-1"?>
<!-- Generator: Adobe Illustrator 17.0.0, SVG Export Plug-In . SVG Version: 6.00 Build 0)  -->
<!DOCTYPE svg PUBLIC "-//W3C//DTD SVG 1.1//EN" "http://www.w3.org/Graphics/SVG/1.1/DTD/svg11.dtd">
<svg version="1.1" id="Layer_1" xmlns="http://www.w3.org/2000/svg" xmlns:xlink="http://www.w3.org/1999/xlink" x="0px" y="0px"
	 width="1920px" height="1200px" viewBox="0 0 1920 1200" style="enable-background:new 0 0 1920 1200;" xml:space="preserve">
<g>
	<polygon style="fill:#FFFFFF;" points="0,0 0,1200 1920,1200 1920,600 1680,1016 720,1016 960,600 1200,184.308 1680,184.308 
		1920,600 1920,0 	"/>
	<polygon style="opacity:0.1;enable-background:new    ;" points="1200,1016 1303.116,1200 1920,1200 1680,1016 	"/>
	<polygon style="opacity:0.08;enable-background:new    ;" points="1920,0 1680,184.308 1200,184.308 1317.406,0 	"/>
	<polygon style="opacity:0.1;enable-background:new    ;" points="0,0 240,184.308 720,184.308 602.594,0 	"/>
	<polygon style="opacity:0.1;enable-background:new    ;" points="720,184.308 1317.406,0 602.594,0 	"/>
	<polygon style="opacity:0.08;enable-background:new    ;" points="1200,184.308 720,184.308 602.594,0 	"/>
	<polygon style="opacity:0.1;enable-background:new    ;" points="1200,1200 602.594,1016 1317.406,1016 	"/>
	<polygon style="opacity:0.09;enable-background:new    ;" points="1200,1200 720,1200 602.594,1016 	"/>
	<polygon style="opacity:0.12;enable-background:new    ;" points="240,184.308 0,0 0,600 	"/>
	<polygon style="opacity:0.12;enable-background:new    ;" points="1680,184.308 1920,0 1920,600 	"/>
	<polygon style="opacity:0.12;enable-background:new    ;" points="240,1016 0,1200 0,600 	"/>
	<polygon style="opacity:0.12;enable-background:new    ;" points="1680,1016 1920,1200 1920,600 	"/>
	<polygon style="opacity:0.12;enable-background:new    ;" points="1303.116,1200 1200,1200 1254.899,1113.818 	"/>
	<polygon style="opacity:0.12;enable-background:new    ;" points="720,1200 616.884,1200 665.101,1113.818 	"/>
	<polygon style="opacity:0.12;enable-background:new    ;" points="1200,184.308 960,600 720,184.308 	"/>
	<polygon style="opacity:0.14;enable-background:new    ;" points="1200,184.308 960,110.265 1317.406,0 	"/>
	<polygon style="fill-opacity:0;" points="720,184.308 960,600 720,1016 240,1016 0,600 240,184.308 	"/>
	<polygon style="opacity:0.65;fill:#FFFFFF;enable-background:new    ;" points="960,110.265 720,184.308 602.594,0 	"/>
	<polygon style="opacity:0.08;enable-background:new    ;" points="720,1016 616.884,1200 0,1200 240,1016 	"/>
	<polygon style="fill:#FFFFFF;" points="1317.406,1015.692 1200,1015.692 1254.899,1113.818 	"/>
	<polygon style="opacity:0.08;enable-background:new    ;" points="1317.406,1015.692 1200,1015.692 1254.899,1113.818 	"/>
	<polygon style="opacity:0.58;fill:#FFFFFF;enable-background:new    ;" points="720,1016 602.594,1016 665.101,1113.818 	"/>
</g>
</svg>
