<?xml version="1.0" encoding="iso-8859-1"?>
<!-- Generator: Adobe Illustrator 17.0.0, SVG Export Plug-In . SVG Version: 6.00 Build 0)  -->
<!DOCTYPE svg PUBLIC "-//W3C//DTD SVG 1.1//EN" "http://www.w3.org/Graphics/SVG/1.1/DTD/svg11.dtd">
<svg version="1.1" id="Layer_1" xmlns="http://www.w3.org/2000/svg" xmlns:xlink="http://www.w3.org/1999/xlink" x="0px" y="0px"
	 width="1920px" height="1200px" viewBox="0 0 1920 1200" style="enable-background:new 0 0 1920 1200;" xml:space="preserve">
<g>
	<polygon style="fill:#FFFFFF;" points="0,0 0,600 240,184 1200,184 960,600 720,1015.692 240,1015.692 0,600 0,1200 1920,1200 
		1920,0 	"/>
	<polygon style="opacity:0.1;enable-background:new    ;" points="720,184 616.884,0 0,0 240,184 	"/>
	<polygon style="opacity:0.08;enable-background:new    ;" points="0,1200 240,1015.692 720,1015.692 602.594,1200 	"/>
	<polygon style="opacity:0.1;enable-background:new    ;" points="1920,1200 1680,1015.692 1200,1015.692 1317.406,1200 	"/>
	<polygon style="opacity:0.1;enable-background:new    ;" points="1200,1015.692 602.594,1200 1317.406,1200 	"/>
	<polygon style="opacity:0.08;enable-background:new    ;" points="720,1015.692 1200,1015.692 1317.406,1200 	"/>
	<polygon style="opacity:0.1;enable-background:new    ;" points="720,0 1317.406,184 602.594,184 	"/>
	<polygon style="opacity:0.09;enable-background:new    ;" points="720,0 1200,0 1317.406,184 	"/>
	<polygon style="opacity:0.12;enable-background:new    ;" points="1680,1015.692 1920,1200 1920,600 	"/>
	<polygon style="opacity:0.12;enable-background:new    ;" points="240,1015.692 0,1200 0,600 	"/>
	<polygon style="opacity:0.12;enable-background:new    ;" points="1680,184 1920,0 1920,600 	"/>
	<polygon style="opacity:0.12;enable-background:new    ;" points="240,184 0,0 0,600 	"/>
	<polygon style="opacity:0.12;enable-background:new    ;" points="616.884,0 720,0 665.101,86.182 	"/>
	<polygon style="opacity:0.12;enable-background:new    ;" points="1200,0 1303.116,0 1254.899,86.182 	"/>
	<polygon style="opacity:0.12;enable-background:new    ;" points="720,1015.692 960,600 1200,1015.692 	"/>
	<polygon style="opacity:0.14;enable-background:new    ;" points="720,1015.692 960,1089.735 602.594,1200 	"/>
	<polygon style="fill-opacity:0;" points="1200,1015.692 960,600 1200,184 1680,184 1920,600 1680,1015.692 	"/>
	<polygon style="opacity:0.65;fill:#FFFFFF;enable-background:new    ;" points="960,1089.735 1200,1015.692 1317.406,1200 	"/>
	<polygon style="opacity:0.08;enable-background:new    ;" points="1200,184 1303.116,0 1920,0 1680,184 	"/>
	<polygon style="fill:#FFFFFF;" points="602.594,184.308 720,184.308 665.101,86.182 	"/>
	<polygon style="opacity:0.08;enable-background:new    ;" points="602.594,184.308 720,184.308 665.101,86.182 	"/>
	<polygon style="opacity:0.58;fill:#FFFFFF;enable-background:new    ;" points="1200,184 1317.406,184 1254.899,86.182 	"/>
</g>
</svg>
